<svg aria-roledescription="er" viewBox="0 0 478.6484375 811.009765625" style="max-width: 478.648px; background-color: white;" xmlns:xlink="http://www.w3.org/1999/xlink" xmlns="http://www.w3.org/2000/svg" width="100%" id="mermaid-0"><style>#mermaid-0{font-family:"trebuchet ms",verdana,arial,sans-serif;font-size:16px;fill:#000000;}#mermaid-0 .error-icon{fill:#552222;}#mermaid-0 .error-text{fill:#552222;stroke:#552222;}#mermaid-0 .edge-thickness-normal{stroke-width:2px;}#mermaid-0 .edge-thickness-thick{stroke-width:3.5px;}#mermaid-0 .edge-pattern-solid{stroke-dasharray:0;}#mermaid-0 .edge-pattern-dashed{stroke-dasharray:3;}#mermaid-0 .edge-pattern-dotted{stroke-dasharray:2;}#mermaid-0 .marker{fill:#000000;stroke:#000000;}#mermaid-0 .marker.cross{stroke:#000000;}#mermaid-0 svg{font-family:"trebuchet ms",verdana,arial,sans-serif;font-size:16px;}#mermaid-0 .entityBox{fill:#cde498;stroke:#13540c;}#mermaid-0 .attributeBoxOdd{fill:#ffffff;stroke:#13540c;}#mermaid-0 .attributeBoxEven{fill:#f2f2f2;stroke:#13540c;}#mermaid-0 .relationshipLabelBox{fill:hsl(78.1578947368, 58.4615384615%, 84.5098039216%);opacity:0.7;background-color:hsl(78.1578947368, 58.4615384615%, 84.5098039216%);}#mermaid-0 .relationshipLabelBox rect{opacity:0.5;}#mermaid-0 .relationshipLine{stroke:#000000;}#mermaid-0 .entityTitleText{text-anchor:middle;font-size:18px;fill:#000000;}#mermaid-0 :root{--mermaid-font-family:"trebuchet ms",verdana,arial,sans-serif;}</style><g/><defs><marker orient="auto" markerHeight="18" markerWidth="18" refY="9" refX="0" id="ONLY_ONE_START"><path d="M9,0 L9,18 M15,0 L15,18" fill="none" stroke="gray"/></marker></defs><defs><marker orient="auto" markerHeight="18" markerWidth="18" refY="9" refX="18" id="ONLY_ONE_END"><path d="M3,0 L3,18 M9,0 L9,18" fill="none" stroke="gray"/></marker></defs><defs><marker orient="auto" markerHeight="18" markerWidth="30" refY="9" refX="0" id="ZERO_OR_ONE_START"><circle r="6" cy="9" cx="21" fill="white" stroke="gray"/><path d="M9,0 L9,18" fill="none" stroke="gray"/></marker></defs><defs><marker orient="auto" markerHeight="18" markerWidth="30" refY="9" refX="30" id="ZERO_OR_ONE_END"><circle r="6" cy="9" cx="9" fill="white" stroke="gray"/><path d="M21,0 L21,18" fill="none" stroke="gray"/></marker></defs><defs><marker orient="auto" markerHeight="36" markerWidth="45" refY="18" refX="18" id="ONE_OR_MORE_START"><path d="M0,18 Q 18,0 36,18 Q 18,36 0,18 M42,9 L42,27" fill="none" stroke="gray"/></marker></defs><defs><marker orient="auto" markerHeight="36" markerWidth="45" refY="18" refX="27" id="ONE_OR_MORE_END"><path d="M3,9 L3,27 M9,18 Q27,0 45,18 Q27,36 9,18" fill="none" stroke="gray"/></marker></defs><defs><marker orient="auto" markerHeight="36" markerWidth="57" refY="18" refX="18" id="ZERO_OR_MORE_START"><circle r="6" cy="18" cx="48" fill="white" stroke="gray"/><path d="M0,18 Q18,0 36,18 Q18,36 0,18" fill="none" stroke="gray"/></marker></defs><defs><marker orient="auto" markerHeight="36" markerWidth="57" refY="18" refX="39" id="ZERO_OR_MORE_END"><circle r="6" cy="18" cx="9" fill="white" stroke="gray"/><path d="M21,18 Q39,0 57,18 Q39,36 21,18" fill="none" stroke="gray"/></marker></defs><path style="stroke: gray; fill: none;" marker-start="url(#ZERO_OR_MORE_START)" marker-end="url(#ZERO_OR_ONE_END)" d="M85.265625,556.642578125L85.265625,564.9759114583334C85.265625,573.3092447916666,85.265625,589.9759114583334,91.14193198801071,606.642578125C97.01823897602144,623.3092447916666,108.77085295204284,639.9759114583334,114.64715994005356,648.3092447916666L120.52346692806427,656.642578125" class="er relationshipLine"/><path style="stroke: gray; fill: none;" marker-start="url(#ZERO_OR_MORE_START)" marker-end="url(#ONLY_ONE_END)" d="M185.84067186709296,311.275390625L196.62243488924415,325.1240234375C207.4041979113953,338.97265625,228.96772395569766,366.669921875,239.74948697784885,398.2081705729167C250.53125,429.7464192708333,250.53125,465.1256510416667,250.53125,500.5048828125C250.53125,535.8841145833334,250.53125,571.2633463541666,244.6549430119893,597.2862955729166C238.77863602397858,623.3092447916666,227.02602204795713,639.9759114583334,221.14971505994643,648.3092447916666L215.27340807193573,656.642578125" class="er relationshipLine"/><path style="stroke: gray; fill: none;" marker-start="url(#ZERO_OR_MORE_START)" marker-end="url(#ONLY_ONE_END)" d="M149.95620313290704,311.275390625L139.17444011075585,325.1240234375C128.3926770886047,338.97265625,106.82915104430235,366.669921875,96.04738802215117,388.8518880208333C85.265625,411.0338541666667,85.265625,427.7005208333333,85.265625,436.0338541666667L85.265625,444.3671875" class="er relationshipLine"/><path style="stroke: gray; fill: none;" marker-start="url(#ZERO_OR_MORE_START)" marker-end="url(#ONLY_ONE_END)" d="M336.3206974018335,132.091796875L344.9794874181946,140.42513020833334C353.6382774345557,148.75846354166666,370.95585746727784,165.42513020833334,379.6146474836389,182.091796875C388.2734375,198.75846354166666,388.2734375,215.42513020833334,388.2734375,223.75846354166666L388.2734375,232.091796875" class="er relationshipLine"/><path style="stroke: gray; fill: none;" marker-start="url(#ZERO_OR_MORE_START)" marker-end="url(#ONLY_ONE_END)" d="M219.85117759816652,132.091796875L211.19238758180543,140.42513020833334C202.53359756544432,148.75846354166666,185.21601753272216,165.42513020833334,176.55722751636108,187.60709635416666C167.8984375,209.7890625,167.8984375,237.486328125,167.8984375,251.3349609375L167.8984375,265.18359375" class="er relationshipLine"/><g transform="translate(20,444.3671875 )" id="entity-Pool-d8b00d58-00bd-4168-9f41-6881c0035c4e"><rect height="112.275390625" width="130.53125" y="0" x="0" class="er entityBox"/><text style="dominant-baseline: middle; text-anchor: middle; font-size: 12px;" transform="translate(65.265625,12)" y="0" x="0" id="text-entity-Pool-d8b00d58-00bd-4168-9f41-6881c0035c4e" class="er entityLabel">Pool</text><rect height="22.091796875" width="53.671875" y="24" x="0" class="er attributeBoxOdd"/><text style="dominant-baseline: middle; font-size: 10.2px;" transform="translate(5,35.0458984375)" y="0" x="0" id="text-entity-Pool-d8b00d58-00bd-4168-9f41-6881c0035c4e-attr-1-type" class="er entityLabel">String</text><rect height="22.091796875" width="55.296875" y="24" x="53.671875" class="er attributeBoxOdd"/><text style="dominant-baseline: middle; font-size: 10.2px;" transform="translate(58.671875,35.0458984375)" y="0" x="0" id="text-entity-Pool-d8b00d58-00bd-4168-9f41-6881c0035c4e-attr-1-name" class="er entityLabel">id</text><rect height="22.091796875" width="21.5625" y="24" x="108.96875" class="er attributeBoxOdd"/><text style="dominant-baseline: middle; font-size: 10.2px;" transform="translate(113.96875,35.0458984375)" y="0" x="0" id="text-entity-Pool-d8b00d58-00bd-4168-9f41-6881c0035c4e-attr-1-key" class="er entityLabel">PK</text><rect height="22.091796875" width="53.671875" y="46.091796875" x="0" class="er attributeBoxEven"/><text style="dominant-baseline: middle; font-size: 10.2px;" transform="translate(5,57.1376953125)" y="0" x="0" id="text-entity-Pool-d8b00d58-00bd-4168-9f41-6881c0035c4e-attr-2-type" class="er entityLabel">String</text><rect height="22.091796875" width="55.296875" y="46.091796875" x="53.671875" class="er attributeBoxEven"/><text style="dominant-baseline: middle; font-size: 10.2px;" transform="translate(58.671875,57.1376953125)" y="0" x="0" id="text-entity-Pool-d8b00d58-00bd-4168-9f41-6881c0035c4e-attr-2-name" class="er entityLabel">title</text><rect height="22.091796875" width="21.5625" y="46.091796875" x="108.96875" class="er attributeBoxEven"/><text style="dominant-baseline: middle; font-size: 10.2px;" transform="translate(113.96875,57.1376953125)" y="0" x="0" id="text-entity-Pool-d8b00d58-00bd-4168-9f41-6881c0035c4e-attr-2-key" class="er entityLabel"/><rect height="22.091796875" width="53.671875" y="68.18359375" x="0" class="er attributeBoxOdd"/><text style="dominant-baseline: middle; font-size: 10.2px;" transform="translate(5,79.2294921875)" y="0" x="0" id="text-entity-Pool-d8b00d58-00bd-4168-9f41-6881c0035c4e-attr-3-type" class="er entityLabel">String</text><rect height="22.091796875" width="55.296875" y="68.18359375" x="53.671875" class="er attributeBoxOdd"/><text style="dominant-baseline: middle; font-size: 10.2px;" transform="translate(58.671875,79.2294921875)" y="0" x="0" id="text-entity-Pool-d8b00d58-00bd-4168-9f41-6881c0035c4e-attr-3-name" class="er entityLabel">code</text><rect height="22.091796875" width="21.5625" y="68.18359375" x="108.96875" class="er attributeBoxOdd"/><text style="dominant-baseline: middle; font-size: 10.2px;" transform="translate(113.96875,79.2294921875)" y="0" x="0" id="text-entity-Pool-d8b00d58-00bd-4168-9f41-6881c0035c4e-attr-3-key" class="er entityLabel"/><rect height="22" width="53.671875" y="90.275390625" x="0" class="er attributeBoxEven"/><text style="dominant-baseline: middle; font-size: 10.2px;" transform="translate(5,101.275390625)" y="0" x="0" id="text-entity-Pool-d8b00d58-00bd-4168-9f41-6881c0035c4e-attr-4-type" class="er entityLabel">DateTime</text><rect height="22" width="55.296875" y="90.275390625" x="53.671875" class="er attributeBoxEven"/><text style="dominant-baseline: middle; font-size: 10.2px;" transform="translate(58.671875,101.275390625)" y="0" x="0" id="text-entity-Pool-d8b00d58-00bd-4168-9f41-6881c0035c4e-attr-4-name" class="er entityLabel">createdAt</text><rect height="22" width="21.5625" y="90.275390625" x="108.96875" class="er attributeBoxEven"/><text style="dominant-baseline: middle; font-size: 10.2px;" transform="translate(113.96875,101.275390625)" y="0" x="0" id="text-entity-Pool-d8b00d58-00bd-4168-9f41-6881c0035c4e-attr-4-key" class="er entityLabel"/></g><g transform="translate(117.8984375,265.18359375 )" id="entity-Participants-5f7b88b1-957d-4302-ac48-4d702c373cf8"><rect height="46.091796875" width="100" y="0" x="0" class="er entityBox"/><text style="dominant-baseline: middle; text-anchor: middle; font-size: 12px;" transform="translate(50,12)" y="0" x="0" id="text-entity-Participants-5f7b88b1-957d-4302-ac48-4d702c373cf8" class="er entityLabel">Participants</text><rect height="22.091796875" width="44.302083333333336" y="24" x="0" class="er attributeBoxOdd"/><text style="dominant-baseline: middle; font-size: 10.2px;" transform="translate(5,35.0458984375)" y="0" x="0" id="text-entity-Participants-5f7b88b1-957d-4302-ac48-4d702c373cf8-attr-1-type" class="er entityLabel">String</text><rect height="22.091796875" width="26.364583333333332" y="24" x="44.302083333333336" class="er attributeBoxOdd"/><text style="dominant-baseline: middle; font-size: 10.2px;" transform="translate(49.302083333333336,35.0458984375)" y="0" x="0" id="text-entity-Participants-5f7b88b1-957d-4302-ac48-4d702c373cf8-attr-1-name" class="er entityLabel">id</text><rect height="22.091796875" width="29.333333333333332" y="24" x="70.66666666666667" class="er attributeBoxOdd"/><text style="dominant-baseline: middle; font-size: 10.2px;" transform="translate(75.66666666666667,35.0458984375)" y="0" x="0" id="text-entity-Participants-5f7b88b1-957d-4302-ac48-4d702c373cf8-attr-1-key" class="er entityLabel">PK</text></g><g transform="translate(79.2421875,656.642578125 )" id="entity-User-adf9843d-70d8-42a8-b755-ebbddf85e084"><rect height="134.3671875" width="177.3125" y="0" x="0" class="er entityBox"/><text style="dominant-baseline: middle; text-anchor: middle; font-size: 12px;" transform="translate(88.65625,12)" y="0" x="0" id="text-entity-User-adf9843d-70d8-42a8-b755-ebbddf85e084" class="er entityLabel">User</text><rect height="22.091796875" width="53.671875" y="24" x="0" class="er attributeBoxOdd"/><text style="dominant-baseline: middle; font-size: 10.2px;" transform="translate(5,35.0458984375)" y="0" x="0" id="text-entity-User-adf9843d-70d8-42a8-b755-ebbddf85e084-attr-1-type" class="er entityLabel">String</text><rect height="22.091796875" width="55.296875" y="24" x="53.671875" class="er attributeBoxOdd"/><text style="dominant-baseline: middle; font-size: 10.2px;" transform="translate(58.671875,35.0458984375)" y="0" x="0" id="text-entity-User-adf9843d-70d8-42a8-b755-ebbddf85e084-attr-1-name" class="er entityLabel">id</text><rect height="22.091796875" width="21.5625" y="24" x="108.96875" class="er attributeBoxOdd"/><text style="dominant-baseline: middle; font-size: 10.2px;" transform="translate(113.96875,35.0458984375)" y="0" x="0" id="text-entity-User-adf9843d-70d8-42a8-b755-ebbddf85e084-attr-1-key" class="er entityLabel">PK</text><rect height="22.091796875" width="46.78125" y="24" x="130.53125" class="er attributeBoxOdd"/><text style="dominant-baseline: middle; font-size: 10.2px;" transform="translate(135.53125,35.0458984375)" y="0" x="0" id="text-entity-User-adf9843d-70d8-42a8-b755-ebbddf85e084-attr-1-comment" class="er entityLabel"/><rect height="22.091796875" width="53.671875" y="46.091796875" x="0" class="er attributeBoxEven"/><text style="dominant-baseline: middle; font-size: 10.2px;" transform="translate(5,57.1376953125)" y="0" x="0" id="text-entity-User-adf9843d-70d8-42a8-b755-ebbddf85e084-attr-2-type" class="er entityLabel">String</text><rect height="22.091796875" width="55.296875" y="46.091796875" x="53.671875" class="er attributeBoxEven"/><text style="dominant-baseline: middle; font-size: 10.2px;" transform="translate(58.671875,57.1376953125)" y="0" x="0" id="text-entity-User-adf9843d-70d8-42a8-b755-ebbddf85e084-attr-2-name" class="er entityLabel">name</text><rect height="22.091796875" width="21.5625" y="46.091796875" x="108.96875" class="er attributeBoxEven"/><text style="dominant-baseline: middle; font-size: 10.2px;" transform="translate(113.96875,57.1376953125)" y="0" x="0" id="text-entity-User-adf9843d-70d8-42a8-b755-ebbddf85e084-attr-2-key" class="er entityLabel"/><rect height="22.091796875" width="46.78125" y="46.091796875" x="130.53125" class="er attributeBoxEven"/><text style="dominant-baseline: middle; font-size: 10.2px;" transform="translate(135.53125,57.1376953125)" y="0" x="0" id="text-entity-User-adf9843d-70d8-42a8-b755-ebbddf85e084-attr-2-comment" class="er entityLabel"/><rect height="22.091796875" width="53.671875" y="68.18359375" x="0" class="er attributeBoxOdd"/><text style="dominant-baseline: middle; font-size: 10.2px;" transform="translate(5,79.2294921875)" y="0" x="0" id="text-entity-User-adf9843d-70d8-42a8-b755-ebbddf85e084-attr-3-type" class="er entityLabel">String</text><rect height="22.091796875" width="55.296875" y="68.18359375" x="53.671875" class="er attributeBoxOdd"/><text style="dominant-baseline: middle; font-size: 10.2px;" transform="translate(58.671875,79.2294921875)" y="0" x="0" id="text-entity-User-adf9843d-70d8-42a8-b755-ebbddf85e084-attr-3-name" class="er entityLabel">email</text><rect height="22.091796875" width="21.5625" y="68.18359375" x="108.96875" class="er attributeBoxOdd"/><text style="dominant-baseline: middle; font-size: 10.2px;" transform="translate(113.96875,79.2294921875)" y="0" x="0" id="text-entity-User-adf9843d-70d8-42a8-b755-ebbddf85e084-attr-3-key" class="er entityLabel"/><rect height="22.091796875" width="46.78125" y="68.18359375" x="130.53125" class="er attributeBoxOdd"/><text style="dominant-baseline: middle; font-size: 10.2px;" transform="translate(135.53125,79.2294921875)" y="0" x="0" id="text-entity-User-adf9843d-70d8-42a8-b755-ebbddf85e084-attr-3-comment" class="er entityLabel"/><rect height="22.091796875" width="53.671875" y="90.275390625" x="0" class="er attributeBoxEven"/><text style="dominant-baseline: middle; font-size: 10.2px;" transform="translate(5,101.3212890625)" y="0" x="0" id="text-entity-User-adf9843d-70d8-42a8-b755-ebbddf85e084-attr-4-type" class="er entityLabel">String</text><rect height="22.091796875" width="55.296875" y="90.275390625" x="53.671875" class="er attributeBoxEven"/><text style="dominant-baseline: middle; font-size: 10.2px;" transform="translate(58.671875,101.3212890625)" y="0" x="0" id="text-entity-User-adf9843d-70d8-42a8-b755-ebbddf85e084-attr-4-name" class="er entityLabel">avatarUrl</text><rect height="22.091796875" width="21.5625" y="90.275390625" x="108.96875" class="er attributeBoxEven"/><text style="dominant-baseline: middle; font-size: 10.2px;" transform="translate(113.96875,101.3212890625)" y="0" x="0" id="text-entity-User-adf9843d-70d8-42a8-b755-ebbddf85e084-attr-4-key" class="er entityLabel"/><rect height="22.091796875" width="46.78125" y="90.275390625" x="130.53125" class="er attributeBoxEven"/><text style="dominant-baseline: middle; font-size: 10.2px;" transform="translate(135.53125,101.3212890625)" y="0" x="0" id="text-entity-User-adf9843d-70d8-42a8-b755-ebbddf85e084-attr-4-comment" class="er entityLabel">nullable</text><rect height="22" width="53.671875" y="112.3671875" x="0" class="er attributeBoxOdd"/><text style="dominant-baseline: middle; font-size: 10.2px;" transform="translate(5,123.3671875)" y="0" x="0" id="text-entity-User-adf9843d-70d8-42a8-b755-ebbddf85e084-attr-5-type" class="er entityLabel">DateTime</text><rect height="22" width="55.296875" y="112.3671875" x="53.671875" class="er attributeBoxOdd"/><text style="dominant-baseline: middle; font-size: 10.2px;" transform="translate(58.671875,123.3671875)" y="0" x="0" id="text-entity-User-adf9843d-70d8-42a8-b755-ebbddf85e084-attr-5-name" class="er entityLabel">createdAt</text><rect height="22" width="21.5625" y="112.3671875" x="108.96875" class="er attributeBoxOdd"/><text style="dominant-baseline: middle; font-size: 10.2px;" transform="translate(113.96875,123.3671875)" y="0" x="0" id="text-entity-User-adf9843d-70d8-42a8-b755-ebbddf85e084-attr-5-key" class="er entityLabel"/><rect height="22" width="46.78125" y="112.3671875" x="130.53125" class="er attributeBoxOdd"/><text style="dominant-baseline: middle; font-size: 10.2px;" transform="translate(135.53125,123.3671875)" y="0" x="0" id="text-entity-User-adf9843d-70d8-42a8-b755-ebbddf85e084-attr-5-comment" class="er entityLabel"/></g><g transform="translate(317.8984375,232.091796875 )" id="entity-Game-2bda1e71-1fce-41b4-8fa8-5ff80e3cb26b"><rect height="112.275390625" width="140.75" y="0" x="0" class="er entityBox"/><text style="dominant-baseline: middle; text-anchor: middle; font-size: 12px;" transform="translate(70.375,12)" y="0" x="0" id="text-entity-Game-2bda1e71-1fce-41b4-8fa8-5ff80e3cb26b" class="er entityLabel">Game</text><rect height="22.091796875" width="53.671875" y="24" x="0" class="er attributeBoxOdd"/><text style="dominant-baseline: middle; font-size: 10.2px;" transform="translate(5,35.0458984375)" y="0" x="0" id="text-entity-Game-2bda1e71-1fce-41b4-8fa8-5ff80e3cb26b-attr-1-type" class="er entityLabel">String</text><rect height="22.091796875" width="65.515625" y="24" x="53.671875" class="er attributeBoxOdd"/><text style="dominant-baseline: middle; font-size: 10.2px;" transform="translate(58.671875,35.0458984375)" y="0" x="0" id="text-entity-Game-2bda1e71-1fce-41b4-8fa8-5ff80e3cb26b-attr-1-name" class="er entityLabel">id</text><rect height="22.091796875" width="21.5625" y="24" x="119.1875" class="er attributeBoxOdd"/><text style="dominant-baseline: middle; font-size: 10.2px;" transform="translate(124.1875,35.0458984375)" y="0" x="0" id="text-entity-Game-2bda1e71-1fce-41b4-8fa8-5ff80e3cb26b-attr-1-key" class="er entityLabel">PK</text><rect height="22" width="53.671875" y="46.091796875" x="0" class="er attributeBoxEven"/><text style="dominant-baseline: middle; font-size: 10.2px;" transform="translate(5,57.091796875)" y="0" x="0" id="text-entity-Game-2bda1e71-1fce-41b4-8fa8-5ff80e3cb26b-attr-2-type" class="er entityLabel">DateTime</text><rect height="22" width="65.515625" y="46.091796875" x="53.671875" class="er attributeBoxEven"/><text style="dominant-baseline: middle; font-size: 10.2px;" transform="translate(58.671875,57.091796875)" y="0" x="0" id="text-entity-Game-2bda1e71-1fce-41b4-8fa8-5ff80e3cb26b-attr-2-name" class="er entityLabel">date</text><rect height="22" width="21.5625" y="46.091796875" x="119.1875" class="er attributeBoxEven"/><text style="dominant-baseline: middle; font-size: 10.2px;" transform="translate(124.1875,57.091796875)" y="0" x="0" id="text-entity-Game-2bda1e71-1fce-41b4-8fa8-5ff80e3cb26b-attr-2-key" class="er entityLabel"/><rect height="22.091796875" width="53.671875" y="68.091796875" x="0" class="er attributeBoxOdd"/><text style="dominant-baseline: middle; font-size: 10.2px;" transform="translate(5,79.1376953125)" y="0" x="0" id="text-entity-Game-2bda1e71-1fce-41b4-8fa8-5ff80e3cb26b-attr-3-type" class="er entityLabel">String</text><rect height="22.091796875" width="65.515625" y="68.091796875" x="53.671875" class="er attributeBoxOdd"/><text style="dominant-baseline: middle; font-size: 10.2px;" transform="translate(58.671875,79.1376953125)" y="0" x="0" id="text-entity-Game-2bda1e71-1fce-41b4-8fa8-5ff80e3cb26b-attr-3-name" class="er entityLabel">firstTeam</text><rect height="22.091796875" width="21.5625" y="68.091796875" x="119.1875" class="er attributeBoxOdd"/><text style="dominant-baseline: middle; font-size: 10.2px;" transform="translate(124.1875,79.1376953125)" y="0" x="0" id="text-entity-Game-2bda1e71-1fce-41b4-8fa8-5ff80e3cb26b-attr-3-key" class="er entityLabel"/><rect height="22.091796875" width="53.671875" y="90.18359375" x="0" class="er attributeBoxEven"/><text style="dominant-baseline: middle; font-size: 10.2px;" transform="translate(5,101.2294921875)" y="0" x="0" id="text-entity-Game-2bda1e71-1fce-41b4-8fa8-5ff80e3cb26b-attr-4-type" class="er entityLabel">String</text><rect height="22.091796875" width="65.515625" y="90.18359375" x="53.671875" class="er attributeBoxEven"/><text style="dominant-baseline: middle; font-size: 10.2px;" transform="translate(58.671875,101.2294921875)" y="0" x="0" id="text-entity-Game-2bda1e71-1fce-41b4-8fa8-5ff80e3cb26b-attr-4-name" class="er entityLabel">secondTeam</text><rect height="22.091796875" width="21.5625" y="90.18359375" x="119.1875" class="er attributeBoxEven"/><text style="dominant-baseline: middle; font-size: 10.2px;" transform="translate(124.1875,101.2294921875)" y="0" x="0" id="text-entity-Game-2bda1e71-1fce-41b4-8fa8-5ff80e3cb26b-attr-4-key" class="er entityLabel"/></g><g transform="translate(194.0390625,20 )" id="entity-Guess-f3b5becb-6831-4d69-9b89-3efd7f9268a6"><rect height="112.091796875" width="168.09375" y="0" x="0" class="er entityBox"/><text style="dominant-baseline: middle; text-anchor: middle; font-size: 12px;" transform="translate(84.046875,12)" y="0" x="0" id="text-entity-Guess-f3b5becb-6831-4d69-9b89-3efd7f9268a6" class="er entityLabel">Guess</text><rect height="22.091796875" width="53.671875" y="24" x="0" class="er attributeBoxOdd"/><text style="dominant-baseline: middle; font-size: 10.2px;" transform="translate(5,35.0458984375)" y="0" x="0" id="text-entity-Guess-f3b5becb-6831-4d69-9b89-3efd7f9268a6-attr-1-type" class="er entityLabel">String</text><rect height="22.091796875" width="92.859375" y="24" x="53.671875" class="er attributeBoxOdd"/><text style="dominant-baseline: middle; font-size: 10.2px;" transform="translate(58.671875,35.0458984375)" y="0" x="0" id="text-entity-Guess-f3b5becb-6831-4d69-9b89-3efd7f9268a6-attr-1-name" class="er entityLabel">id</text><rect height="22.091796875" width="21.5625" y="24" x="146.53125" class="er attributeBoxOdd"/><text style="dominant-baseline: middle; font-size: 10.2px;" transform="translate(151.53125,35.0458984375)" y="0" x="0" id="text-entity-Guess-f3b5becb-6831-4d69-9b89-3efd7f9268a6-attr-1-key" class="er entityLabel">PK</text><rect height="22" width="53.671875" y="46.091796875" x="0" class="er attributeBoxEven"/><text style="dominant-baseline: middle; font-size: 10.2px;" transform="translate(5,57.091796875)" y="0" x="0" id="text-entity-Guess-f3b5becb-6831-4d69-9b89-3efd7f9268a6-attr-2-type" class="er entityLabel">Int</text><rect height="22" width="92.859375" y="46.091796875" x="53.671875" class="er attributeBoxEven"/><text style="dominant-baseline: middle; font-size: 10.2px;" transform="translate(58.671875,57.091796875)" y="0" x="0" id="text-entity-Guess-f3b5becb-6831-4d69-9b89-3efd7f9268a6-attr-2-name" class="er entityLabel">firstTeamPoints</text><rect height="22" width="21.5625" y="46.091796875" x="146.53125" class="er attributeBoxEven"/><text style="dominant-baseline: middle; font-size: 10.2px;" transform="translate(151.53125,57.091796875)" y="0" x="0" id="text-entity-Guess-f3b5becb-6831-4d69-9b89-3efd7f9268a6-attr-2-key" class="er entityLabel"/><rect height="22" width="53.671875" y="68.091796875" x="0" class="er attributeBoxOdd"/><text style="dominant-baseline: middle; font-size: 10.2px;" transform="translate(5,79.091796875)" y="0" x="0" id="text-entity-Guess-f3b5becb-6831-4d69-9b89-3efd7f9268a6-attr-3-type" class="er entityLabel">Int</text><rect height="22" width="92.859375" y="68.091796875" x="53.671875" class="er attributeBoxOdd"/><text style="dominant-baseline: middle; font-size: 10.2px;" transform="translate(58.671875,79.091796875)" y="0" x="0" id="text-entity-Guess-f3b5becb-6831-4d69-9b89-3efd7f9268a6-attr-3-name" class="er entityLabel">secondTeamPoints</text><rect height="22" width="21.5625" y="68.091796875" x="146.53125" class="er attributeBoxOdd"/><text style="dominant-baseline: middle; font-size: 10.2px;" transform="translate(151.53125,79.091796875)" y="0" x="0" id="text-entity-Guess-f3b5becb-6831-4d69-9b89-3efd7f9268a6-attr-3-key" class="er entityLabel"/><rect height="22" width="53.671875" y="90.091796875" x="0" class="er attributeBoxEven"/><text style="dominant-baseline: middle; font-size: 10.2px;" transform="translate(5,101.091796875)" y="0" x="0" id="text-entity-Guess-f3b5becb-6831-4d69-9b89-3efd7f9268a6-attr-4-type" class="er entityLabel">DateTime</text><rect height="22" width="92.859375" y="90.091796875" x="53.671875" class="er attributeBoxEven"/><text style="dominant-baseline: middle; font-size: 10.2px;" transform="translate(58.671875,101.091796875)" y="0" x="0" id="text-entity-Guess-f3b5becb-6831-4d69-9b89-3efd7f9268a6-attr-4-name" class="er entityLabel">createdAt</text><rect height="22" width="21.5625" y="90.091796875" x="146.53125" class="er attributeBoxEven"/><text style="dominant-baseline: middle; font-size: 10.2px;" transform="translate(151.53125,101.091796875)" y="0" x="0" id="text-entity-Guess-f3b5becb-6831-4d69-9b89-3efd7f9268a6-attr-4-key" class="er entityLabel"/></g><rect height="14" width="33.140625" y="603.1792602539062" x="75.90382385253906" class="er relationshipLabelBox"/><text style="text-anchor: middle; dominant-baseline: middle; font-size: 12px;" y="610.1792602539062" x="92.47413635253906" id="rel1" class="er relationshipLabel">owner</text><rect height="14" width="22.625" y="472.3820495605469" x="239.1331024169922" class="er relationshipLabelBox"/><text style="text-anchor: middle; dominant-baseline: middle; font-size: 12px;" y="479.3820495605469" x="250.4456024169922" id="rel2" class="er relationshipLabel">user</text><rect height="14" width="23.109375" y="365.52294921875" x="93.61779022216797" class="er relationshipLabelBox"/><text style="text-anchor: middle; dominant-baseline: middle; font-size: 12px;" y="372.52294921875" x="105.17247772216797" id="rel3" class="er relationshipLabel">pool</text><rect height="14" width="28.84375" y="168.57626342773438" x="361.3929138183594" class="er relationshipLabelBox"/><text style="text-anchor: middle; dominant-baseline: middle; font-size: 12px;" y="175.57626342773438" x="375.8147888183594" id="rel4" class="er relationshipLabel">game</text><rect height="14" width="59.515625" y="184.13050842285156" x="145.51055908203125" class="er relationshipLabelBox"/><text style="text-anchor: middle; dominant-baseline: middle; font-size: 12px;" y="191.13050842285156" x="175.26837158203125" id="rel5" class="er relationshipLabel">participant</text></svg>